<svg xmlns="http://www.w3.org/2000/svg" viewBox="0 0 20 20" xml:space="preserve">

    <symbol id="add-outline" viewBox="0 0 20 20">
        <path d="M11 9h4v2h-4v4H9v-4H5V9h4V5h2v4zm-1 11a10 10 0 1 1 0-20 10 10 0 0 1 0 20zm0-2a8 8 0 1 0 0-16 8 8 0 0 0 0 16z"/>
    </symbol>

    <symbol id="arrow-thin-right" viewBox="0 0 20 20">
        <path d="M16.172 9l-6.071-6.071 1.414-1.414L20 10l-.707.707-7.778 7.778-1.414-1.414L16.172 11H0V9z"/>
    </symbol>

    <symbol id="bug" viewBox="0 0 20 20">
        <path d="M15.3 14.89l2.77 2.77a1 1 0 0 1 0 1.41 1 1 0 0 1-1.41 0l-2.59-2.58A5.99 5.99 0 0 1 11 18V9.04a1 1 0 0 0-2 0V18a5.98 5.98 0 0 1-3.07-1.51l-2.59 2.58a1 1 0 0 1-1.41 0 1 1 0 0 1 0-1.41l2.77-2.77A5.95 5.95 0 0 1 4.07 13H1a1 1 0 1 1 0-2h3V8.41L.93 5.34a1 1 0 0 1 0-1.41 1 1 0 0 1 1.41 0l2.1 2.1h11.12l2.1-2.1a1 1 0 0 1 1.41 0 1 1 0 0 1 0 1.41L16 8.41V11h3a1 1 0 1 1 0 2h-3.07c-.1.67-.32 1.31-.63 1.89zM15 5H5a5 5 0 1 1 10 0z"/>
    </symbol>

    <symbol id="checkmark-outline" viewBox="0 0 20 20">
        <path d="M2.93 17.07A10 10 0 1 1 17.07 2.93 10 10 0 0 1 2.93 17.07zm12.73-1.41A8 8 0 1 0 4.34 4.34a8 8 0 0 0 11.32 11.32zM6.7 9.29L9 11.6l4.3-4.3 1.4 1.42L9 14.4l-3.7-3.7 1.4-1.42z"/>
    </symbol>

    <symbol id="chevron-down" viewBox="0 0 20 20">
        <path d="M9.293 12.95l.707.707L15.657 8l-1.414-1.414L10 10.828 5.757 6.586 4.343 8z"/>
    </symbol>

    <symbol id="chevron-down-outline" viewBox="0 0 20 20">
        <path d="M20 10a10 10 0 1 1-20 0 10 10 0 0 1 20 0zM10 2a8 8 0 1 0 0 16 8 8 0 0 0 0-16zm-.7 10.54L5.75 9l1.41-1.41L10 10.4l2.83-2.82L14.24 9 10 13.24l-.7-.7z"/>
    </symbol>

    <symbol id="chevron-up" viewBox="0 0 20 20">
        <path d="M10.707 7.05L10 6.343 4.343 12l1.414 1.414L10 9.172l4.243 4.242L15.657 12z"/>
    </symbol>

    <symbol id="chevron-up-outline" viewBox="0 0 20 20">
        <path d="M0 10a10 10 0 1 1 20 0 10 10 0 0 1-20 0zm10 8a8 8 0 1 0 0-16 8 8 0 0 0 0 16zm.7-10.54L14.25 11l-1.41 1.41L10 9.6l-2.83 2.8L5.76 11 10 6.76l.7.7z"/>
    </symbol>

    <symbol id="close" viewBox="0 0 20 20">
        <path d="M10 8.586L2.929 1.515 1.515 2.929 8.586 10l-7.071 7.071 1.414 1.414L10 11.414l7.071 7.071 1.414-1.414L11.414 10l7.071-7.071-1.414-1.414L10 8.586z" />
    </symbol>

    <symbol id="close-outline" viewBox="0 0 20 20">
        <path d="M2.93 17.07A10 10 0 1 1 17.07 2.93 10 10 0 0 1 2.93 17.07zm1.41-1.41A8 8 0 1 0 15.66 4.34 8 8 0 0 0 4.34 15.66zm9.9-8.49L11.41 10l2.83 2.83-1.41 1.41L10 11.41l-2.83 2.83-1.41-1.41L8.59 10 5.76 7.17l1.41-1.41L10 8.59l2.83-2.83 1.41 1.41z"/>
    </symbol>

    <symbol id="cloud" viewBox="0 0 20 20">
        <path d="M16.88 9.1A4 4 0 0 1 16 17H5a5 5 0 0 1-1-9.9V7a3 3 0 0 1 4.52-2.59A4.98 4.98 0 0 1 17 8c0 .38-.04.74-.12 1.1z"/>
    </symbol>

    <symbol id="edit-pencil" viewBox="0 0 20 20">
        <path d="M12.3 3.7l4 4L4 20H0v-4L12.3 3.7zm1.4-1.4L16 0l4 4-2.3 2.3-4-4z"/>
    </symbol>

    <symbol id="globe" viewBox="0 0 20 20">
        <path d="M10 20a10 10 0 1 1 0-20 10 10 0 0 1 0 20zm2-2.25a8 8 0 0 0 4-2.46V9a2 2 0 0 1-2-2V3.07a7.95 7.95 0 0 0-3-1V3a2 2 0 0 1-2 2v1a2 2 0 0 1-2 2v2h3a2 2 0 0 1 2 2v5.75zm-4 0V15a2 2 0 0 1-2-2v-1h-.5A1.5 1.5 0 0 1 4 10.5V8H2.25A8.01 8.01 0 0 0 8 17.75z"/>
    </symbol>

    <symbol id="happy-face" viewBox="0 0 20 20">
        <path d="M10 20a10 10 0 1 1 0-20 10 10 0 0 1 0 20zm0-2a8 8 0 1 0 0-16 8 8 0 0 0 0 16zM6.5 9a1.5 1.5 0 1 1 0-3 1.5 1.5 0 0 1 0 3zm7 0a1.5 1.5 0 1 1 0-3 1.5 1.5 0 0 1 0 3zm2.16 3a6 6 0 0 1-11.32 0h11.32z"/>
    </symbol>

    <symbol id="heart" viewBox="0 0 20 20">
        <path d="M10 3.22l-.61-.6a5.5 5.5 0 0 0-7.78 7.77L10 18.78l8.39-8.4a5.5 5.5 0 0 0-7.78-7.77l-.61.61z"/>
    </symbol>

    <symbol id="home" viewBox="0 0 20 20">
        <path d="M8 20H3V10H0L10 0l10 10h-3v10h-5v-6H8v6z"/>
    </symbol>

    <symbol id="menu" viewBox="0 0 20 20">
        <path d="M0 3h20v2H0V3zm0 6h20v2H0V9zm0 6h20v2H0v-2z"/>
    </symbol>

    <symbol id="minus-outline" viewBox="0 0 20 20">
        <path d="M10 20a10 10 0 1 1 0-20 10 10 0 0 1 0 20zm0-2a8 8 0 1 0 0-16 8 8 0 0 0 0 16zm5-9v2H5V9h10z"/>
    </symbol>

    <symbol id="plus-outline" viewBox="0 0 20 20">
        <path d="M11 9h4v2h-4v4H9v-4H5V9h4V5h2v4zm-1 11a10 10 0 1 1 0-20 10 10 0 0 1 0 20zm0-2a8 8 0 1 0 0-16 8 8 0 0 0 0 16z"/>
    </symbol>

    <symbol id="shopping-cart" viewBox="0 0 20 20">
        <path d="M4 2h16l-3 9H4a1 1 0 1 0 0 2h13v2H4a3 3 0 0 1 0-6h.33L3 5 2 2H0V0h3a1 1 0 0 1 1 1v1zm1 18a2 2 0 1 1 0-4 2 2 0 0 1 0 4zm10 0a2 2 0 1 1 0-4 2 2 0 0 1 0 4z"/>
    </symbol>

</svg>
