<svg id="workspace" xmlns="http://www.w3.org/2000/svg" xmlns:xlink="http://www.w3.org/1999/xlink" style="text-rendering: geometricprecision; cursor: auto;" viewBox="570 260 580 330">
    <desc>Created with Snap</desc>
    <defs>
        <linearGradient x1="0" y1="0.5" x2="1" y2="0.5" id="linearGradientSkcg2bh681c">
            <stop offset="0%" stop-color="#74d14c"></stop>
            <stop offset="100%" stop-color="#74d14c"></stop>
        </linearGradient>
        <linearGradient x1="0" y1="0.5" x2="1" y2="0.5" id="linearGradientSkcg2bh681l">
            <stop offset="0%" stop-color="#74d14c"></stop>
            <stop offset="100%" stop-color="#265d0c"></stop>
        </linearGradient>
        <linearGradient x1="0" y1="0.5" x2="1" y2="0.5" id="linearGradientSkcg2bh681u">
            <stop offset="0%" stop-color="#153607"></stop>
            <stop offset="100%" stop-color="#153607"></stop>
        </linearGradient>
        <linearGradient x1="0" y1="0.5" x2="1" y2="0.5" id="linearGradientSkcg2bh6824">
            <stop offset="0%" stop-color="#74d14c"></stop>
            <stop offset="100%" stop-color="#74d14c"></stop>
        </linearGradient>
        <linearGradient x1="0" y1="0.5" x2="1" y2="0.5" id="linearGradientSkcg2bh6827">
            <stop offset="0%" stop-color="#74d14c"></stop>
            <stop offset="100%" stop-color="#265d0c"></stop>
        </linearGradient>
        <linearGradient x1="0" y1="0.5" x2="1" y2="0.5" id="linearGradientSkcg2bh682a">
            <stop offset="0%" stop-color="#153607"></stop>
            <stop offset="100%" stop-color="#153607"></stop>
        </linearGradient>
        <linearGradient x1="0" y1="0.5" x2="1" y2="0.5" id="linearGradientSkcg2bh682g">
            <stop offset="0%" stop-color="#74d14c"></stop>
            <stop offset="100%" stop-color="#74d14c"></stop>
        </linearGradient>
        <linearGradient x1="0" y1="0.5" x2="1" y2="0.5" id="linearGradientSkcg2bh682j">
            <stop offset="0%" stop-color="#74d14c"></stop>
            <stop offset="100%" stop-color="#265d0c"></stop>
        </linearGradient>
        <linearGradient x1="0" y1="0.5" x2="1" y2="0.5" id="linearGradientSkcg2bh682m">
            <stop offset="0%" stop-color="#153607"></stop>
            <stop offset="100%" stop-color="#153607"></stop>
        </linearGradient>
        <linearGradient x1="0" y1="0.5" x2="1" y2="0.5" id="linearGradientSkcg2bh682p">
            <stop offset="0%" stop-color="#419a1c"></stop>
            <stop offset="100%" stop-color="#419a1c"></stop>
        </linearGradient>
        <linearGradient x1="0" y1="0.5" x2="1" y2="0.5" id="linearGradientSkcg2bh682s">
            <stop offset="0%" stop-color="#74d14c"></stop>
            <stop offset="100%" stop-color="#74d14c"></stop>
        </linearGradient>
        <linearGradient x1="0" y1="0.5" x2="1" y2="0.5" id="linearGradientSkcg2bh682v">
            <stop offset="0%" stop-color="#74d14c"></stop>
            <stop offset="100%" stop-color="#265d0c"></stop>
        </linearGradient>
        <linearGradient x1="0" y1="0.5" x2="1" y2="0.5" id="linearGradientSkcg2bh682y">
            <stop offset="0%" stop-color="#74d14c"></stop>
            <stop offset="100%" stop-color="#74d14c"></stop>
        </linearGradient>
        <linearGradient x1="0" y1="0.5" x2="1" y2="0.5" id="linearGradientSkcg2bh6831">
            <stop offset="0%" stop-color="#74d14c"></stop>
            <stop offset="100%" stop-color="#265d0c"></stop>
        </linearGradient>
        <linearGradient x1="0" y1="0.5" x2="1" y2="0.5" id="linearGradientSkcg2bh6834">
            <stop offset="0%" stop-color="#74d14c"></stop>
            <stop offset="100%" stop-color="#74d14c"></stop>
        </linearGradient>
        <linearGradient x1="0" y1="0.5" x2="1" y2="0.5" id="linearGradientSkcg2bh6837">
            <stop offset="0%" stop-color="#74d14c"></stop>
            <stop offset="100%" stop-color="#265d0c"></stop>
        </linearGradient>
        <linearGradient x1="0" y1="0.5" x2="1" y2="0.5" id="linearGradientSkcg2bh683a">
            <stop offset="0%" stop-color="#74d14c"></stop>
            <stop offset="100%" stop-color="#74d14c"></stop>
        </linearGradient>
        <linearGradient x1="0" y1="0.5" x2="1" y2="0.5" id="linearGradientSkcg2bh683d">
            <stop offset="0%" stop-color="#74d14c"></stop>
            <stop offset="100%" stop-color="#265d0c"></stop>
        </linearGradient>
    </defs>
    <g style="cursor: move; opacity: 1;" class="svg-clip svg-visible" transform="matrix(-4.4783,4.4783,-4.4783,-4.4783,1164.2176,418)">
        <rect x="0" y="0" width="13" height="13" fill="none" class="svg-hitbox" style=""></rect>
        <svg width="13.000039558738266" height="13.001816308128003" viewBox="8.906720220630866,9.516651845935996,13.000039558738266,13.001816308128003">
            <desc>Created with Snap</desc>
            <defs></defs>
            <g></g>
            <g></g>
            <g>
                <ellipse transform="matrix(0.7071 -0.7071 0.7071 0.7071 -6.7962 15.5933)" cx="15.4" cy="16" rx="1.5" ry="1.5" fill="url('#linearGradientSkcg2bh683a')" stroke="none" style=""></ellipse>
            </g>
        </svg>
    </g>
    <g class="svg-clip svg-visible" transform="matrix(-4.4783,4.4783,-4.4783,-4.4783,1202.3275,418.7609)" style="cursor: move; opacity: 1;">
        <rect x="0" y="0" width="89" height="88" fill="none" class="svg-hitbox" style=""></rect>
        <svg width="89.22500000000001" height="88.3" viewBox="4.799999999999999,5.299999999999999,89.22500000000001,88.3">
            <desc>Created with Snap</desc>
            <defs></defs>
            <g></g>
            <g></g>
            <g>
                <path d="M25.6,32.1l-8.1,8.1c-3.1,3.1-3.1,8.2,0,11.3l34.8,34.8c1.6,1.6,3.6,2.3,5.6,2.3s4.1-0.8,5.6-2.3l23.2-23.2  c3.1-3.1,3.1-8.2,0-11.3L52,17c-3.1-3.1-8.2-3.1-11.3,0l-9.2,9.2L19.2,12.1c-1-1.1-2.4-1.7-3.9-1.8c-1.5,0-2.9,0.5-3.9,1.6  s-1.6,2.5-1.6,3.9s0.7,2.9,1.8,3.9L25.6,32.1z M12.8,13.4c0.6-0.6,1.5-1,2.4-1c0,0,0.1,0,0.1,0c0.9,0,1.8,0.4,2.4,1.1l13,14.9  c0.2,0.2,0.4,0.3,0.7,0.3c0.3,0,0.5-0.1,0.7-0.3l9.9-9.9c2.3-2.3,6.1-2.3,8.5,0l34.8,34.8c2.3,2.3,2.3,6.1,0,8.5L62.2,84.9  c-2.3,2.3-6.1,2.3-8.5,0L19,50.1c-2.3-2.3-2.3-6.1,0-8.5l8.8-8.8c0.2-0.2,0.3-0.5,0.3-0.7s-0.1-0.5-0.3-0.7l-14.8-13  c-0.7-0.6-1.1-1.5-1.1-2.4S12.1,14.1,12.8,13.4z" fill="url('#linearGradientSkcg2bh683d')" stroke="none" style=""></path>
            </g>
        </svg>
    </g>
    <g class="svg-clip svg-visible" transform="matrix(0,-1,1,0,724,374.5)" style="cursor: move; opacity: 1;">
        <rect x="0" y="0" width="29" height="110" fill="none" class="svg-hitbox" style=""></rect>
        <svg width="29.918999999999997" height="110.02999999999999" viewBox="-5,-5,29.918999999999997,110.02999999999999">
            <desc>Created with Snap</desc>
            <defs></defs>
            <g></g>
            <g></g>
            <g>
                <path d="M19.159,71.493c-0.407-3.01-0.637-6.454-0.637-10.115c0-1.036,0.018-2.056,0.054-3.051 c0.031-0.854-0.665-1.546-1.51-1.595V15.175c0-6.015-2.858-11.237-7.004-14.969C9.919,0.078,9.731,0,9.525,0 C9.166,0,8.863,0.238,8.761,0.564C3.216,18.395,0,37.313,0,56.948c0,0.586,0.475,1.06,1.061,1.06h3.988 c0.001,0.885,0.718,1.602,1.603,1.602h1.83c1.2,0,2.123,0.784,2.479,1.944c0.299,0.973,0.357,2.014,0.319,3.21 c-0.048,1.543-0.179,2.613-0.434,3.701c-0.707,3.011-1.265,6.379-1.265,9.977c0,3.676,0.361,7.172,1.318,10.17 c0.164,0.516,0.251,1.062,0.251,1.631c0,1.426-0.559,2.716-1.458,3.682c-0.225,0.24-0.362,0.564-0.362,0.919 c0,0.268,0.079,0.52,0.215,0.729c1.06,1.644,2.465,3.045,4.139,4.059c0.417,0.253,0.905,0.398,1.429,0.398 c0.737,0,1.407-0.289,1.903-0.759c0.672-0.638,1.159-1.465,1.377-2.396c0.886-3.742,1.526-8.9,1.526-14.617 C19.917,78.312,19.581,74.633,19.159,71.493z M2.495,56.709h-0.91c-0.232,0-0.425-0.191-0.425-0.426 c0-18.57,3.092-36.492,8.194-53.45c0.051-0.17,0.209-0.296,0.397-0.296c0.121,0,0.23,0.052,0.308,0.133 c0.27,0.29,0.528,0.591,0.794,0.885c0.065,0.074,0.106,0.174,0.106,0.281c0,0.044-0.007,0.087-0.02,0.127 C5.721,20.508,3.074,38.112,2.916,56.288C2.916,56.521,2.727,56.709,2.495,56.709z" fill="url('#linearGradientSkcg2bh682m')" stroke="none" style=""></path>
            </g>
        </svg>
    </g>
    <g class="svg-text svg-visible" transform="matrix(0.9353,0,0,0.9353,786,382)" style="pointer-events: fill; cursor: move; opacity: 1;">
        <path fill="none" style="" d="M-158.9,95.19999999999999 C-20,94.19999999999999 20,94.19999999999999 158.9,95.19999999999999"></path>
        <path d="M-144.8-63.2L-144.8 0L-152.6 0L-152.6-70L-140.4-70L-131.9-21.5L-123.30000000000001-70L-111.10000000000001-70L-111.10000000000001 0L-118.9 0L-118.9-63.2L-127.4-15L-136.3-15L-144.8-63.2ZM-100.3-16.7Q-100.3-26.2 -97.5-29.65Q-94.7-33.1 -89.5-33.1Q-84.3-33.1 -81.3-29.1L-81.3-29.1L-81.3-39.6Q-81.3-49.2 -87.3-49.2L-87.3-49.2Q-92.39999999999999-49.2 -97-43.3L-97-43.3L-99.7-48.9Q-97.39999999999999-51.7 -93.85-53.6Q-90.3-55.5 -86.6-55.5L-86.6-55.5Q-73.6-55.5 -73.6-37.9L-73.6-37.9L-73.6 0L-78.3 0L-79.9-6.5Q-81-2.5 -83.55-0.5Q-86.1 1.5 -89.3 1.5L-89.3 1.5Q-94.7 1.5 -97.5-1.95Q-100.3-5.4 -100.3-14.9L-100.3-14.9L-100.3-16.7ZM-87.69999999999999-4.8L-87.69999999999999-4.8Q-84.8-4.8 -83.15-6.9Q-81.5-9 -81.3-14.5L-81.3-14.5L-81.3-17.2Q-81.5-23.1 -83.15-25.4Q-84.8-27.7 -87.69999999999999-27.7L-87.69999999999999-27.7Q-92.7-27.7 -92.7-18.2L-92.7-18.2L-92.7-14.3Q-92.7-4.8 -87.69999999999999-4.8ZM-44.999999999999986-55.5L-44.999999999999986-55.5L-42.999999999999986-55.4L-43.59999999999999-46.9Q-44.999999999999986-47.6 -46.29999999999998-47.6L-46.29999999999998-47.6Q-53.899999999999984-47.6 -53.999999999999986-31.8L-53.999999999999986-31.8L-53.999999999999986 0L-61.69999999999999 0L-61.69999999999999-54L-56.999999999999986-54L-54.79999999999998-44.8Q-52.79999999999998-55.5 -44.999999999999986-55.5ZM-35.899999999999984-74L-28.59999999999998-74L-28.59999999999998-47.5Q-25.89999999999998-55.5 -18.999999999999982-55.5L-18.999999999999982-55.5Q-13.699999999999982-55.5 -10.89999999999998-51Q-8.09999999999998-46.5 -8.09999999999998-34.5L-8.09999999999998-34.5L-8.09999999999998-19.5Q-8.09999999999998-7.5 -10.89999999999998-3Q-13.699999999999982 1.5 -18.999999999999982 1.5L-18.999999999999982 1.5Q-26.89999999999998 1.5 -28.999999999999982-9.6L-28.999999999999982-9.6L-31.19999999999998 0L-35.899999999999984 0L-35.899999999999984-74ZM-28.59999999999998-28.4L-28.59999999999998-27Q-28.59999999999998-18 -27.44999999999998-12.8Q-26.299999999999983-7.6 -24.799999999999983-6.15Q-23.299999999999983-4.7 -20.799999999999983-4.7L-20.799999999999983-4.7Q-15.39999999999998-4.7 -15.39999999999998-17.1L-15.39999999999998-17.1L-15.39999999999998-36.9Q-15.39999999999998-49.3 -20.69999999999998-49.3L-20.69999999999998-49.3Q-22.999999999999982-49.3 -24.549999999999983-47.9Q-26.09999999999998-46.5 -27.299999999999983-41.7Q-28.499999999999982-36.9 -28.59999999999998-28.4L-28.59999999999998-28.4ZM 10.800000000000018 0L 3.1000000000000174 0L 3.1000000000000174-74L 10.800000000000018-74L 10.800000000000018 0ZM 49.90000000000002-14Q 49.20000000000002-5.3  45.80000000000002-1.9Q 42.40000000000002 1.5  35.95000000000002 1.5Q 29.50000000000002 1.5  25.75000000000002-3.05Q 22.00000000000002-7.6  22.00000000000002-19.5L 22.00000000000002-19.5L 22.00000000000002-34.5Q 22.00000000000002-46.4  25.75000000000002-50.95Q 29.50000000000002-55.5  36.30000000000002-55.5Q 43.10000000000002-55.5  46.60000000000002-51Q 50.10000000000002-46.5  50.10000000000002-34.5L 50.10000000000002-34.5L 50.10000000000002-23.8L 29.60000000000002-23.8L 29.60000000000002-18.1Q 29.60000000000002-4.7  36.000000000000014-4.7L 36.000000000000014-4.7Q 39.10000000000002-4.7  40.80000000000002-6.9Q 42.500000000000014-9.1  43.20000000000002-15.1L 43.20000000000002-15.1L 49.90000000000002-14ZM 29.60000000000002-35.9L 29.60000000000002-35.9L 29.60000000000002-30.2L 42.40000000000002-30.2L 42.40000000000002-35.9Q 42.40000000000002-49.3  36.10000000000002-49.3L 36.10000000000002-49.3Q 29.60000000000002-49.3  29.60000000000002-35.9ZM 66.00000000000001-63.6L 56.30000000000001-63.6L 56.30000000000001-70L 83.60000000000002-70L 83.60000000000002-63.6L 73.9-63.6L 73.9 0L 66.00000000000001 0L 66.00000000000001-63.6ZM 115.00000000000003-34.5L 115.00000000000003-34.5L 115.00000000000003-19.5Q 115.00000000000003-7.6  111.35000000000002-3.05Q 107.70000000000003 1.5  100.95000000000003 1.5Q 94.20000000000003 1.5  90.55000000000003-3.05Q 86.90000000000003-7.6  86.90000000000003-19.5L 86.90000000000003-19.5L 86.90000000000003-34.5Q 86.90000000000003-46.4  90.55000000000003-50.95Q 94.20000000000003-55.5  100.95000000000003-55.5Q 107.70000000000003-55.5  111.35000000000002-50.95Q 115.00000000000003-46.4  115.00000000000003-34.5ZM 107.30000000000003-18.1L 107.30000000000003-18.1L 107.30000000000003-35.9Q 107.30000000000003-49.3  101.00000000000003-49.3L 101.00000000000003-49.3Q 94.50000000000003-49.3  94.50000000000003-35.9L 94.50000000000003-35.9L 94.50000000000003-18.1Q 94.50000000000003-4.7  101.00000000000003-4.7L 101.00000000000003-4.7Q 107.30000000000003-4.7  107.30000000000003-18.1ZM 126.2 18L 126.2-54L 130.9-54L 132.9-45.3Q 135.20000000000002-55.5  143.1-55.5L 143.1-55.5Q 148.4-55.5  151.20000000000002-51Q 154-46.5  154-34.5L 154-34.5L 154-19.5Q 154-7.5  151.20000000000002-3Q 148.4 1.5  143.1 1.5L 143.1 1.5Q 135.8 1.5  133.5-7.9L 133.5-7.9L 133.5 18L 126.2 18ZM 133.5-28.4L 133.5-27Q 133.5-18  134.65-12.8Q 135.8-7.6  137.3-6.15Q 138.8-4.7  141.3-4.7L 141.3-4.7Q 146.70000000000002-4.7  146.70000000000002-17.1L 146.70000000000002-17.1L 146.70000000000002-36.9Q 146.70000000000002-49.3  141.4-49.3L 141.4-49.3Q 139.1-49.3  137.55-47.9Q 136-46.5  134.8-41.7Q 133.6-36.9  133.5-28.4L 133.5-28.4Z" data-textpath="MarbleTop" data-text-anchor="middle" data-font-size="100" data-letterspacing="0" data-side="left" data-offset="0" data-dx="0" data-dy="86.39999999999999" data-href="" data-font="Pathway Gothic One" data-font-src="/Content/clientfonts/pathwaygothicone.woff" data-font-scale="contain" transform="translate(0,86.39999999999999)" data-xmlspace="preserve" fill="url('#linearGradientSkcg2bh682p')"></path>
        <rect x="0" y="0" width="0" height="0"></rect>
    </g>
</svg>
