<svg id="workspace" xmlns="http://www.w3.org/2000/svg" xmlns:xlink="http://www.w3.org/1999/xlink" style="text-rendering: geometricprecision; cursor: auto;" viewBox="670 300 330 240"><desc>Created with Snap</desc><defs><linearGradient x1="0" y1="0.5" x2="1" y2="0.5" id="linearGradientSkdg3d30vshc"><stop offset="0%" stop-color="#22543D"></stop><stop offset="100%" stop-color="#22543D"></stop></linearGradient><linearGradient x1="0" y1="0.5" x2="1" y2="0.5" id="linearGradientSkdg3d30vshl"><stop offset="0%" stop-color="#38A169"></stop><stop offset="100%" stop-color="#38A169"></stop></linearGradient><linearGradient x1="0" y1="0.5" x2="1" y2="0.5" id="linearGradientSkdg3d30vshu"><stop offset="0%" stop-color="#3a3a3a"></stop><stop offset="100%" stop-color="#3a3a3a"></stop></linearGradient><linearGradient x1="0" y1="0.5" x2="1" y2="0.5" id="linearGradientSkdg3d30vsi3"><stop offset="0%" stop-color="#3a3a3a"></stop><stop offset="100%" stop-color="#3a3a3a"></stop></linearGradient><linearGradient x1="0" y1="0.5" x2="1" y2="0.5" id="linearGradientSkdg3d30vsid"><stop offset="0%" stop-color="#22543D"></stop><stop offset="100%" stop-color="#22543D"></stop></linearGradient><linearGradient x1="0" y1="0.5" x2="1" y2="0.5" id="linearGradientSkdg3d30vsig"><stop offset="0%" stop-color="#38A169"></stop><stop offset="100%" stop-color="#38A169"></stop></linearGradient><linearGradient x1="0" y1="0.5" x2="1" y2="0.5" id="linearGradientSkdg3d30vsij"><stop offset="0%" stop-color="#3a3a3a"></stop><stop offset="100%" stop-color="#3a3a3a"></stop></linearGradient><linearGradient x1="0" y1="0.5" x2="1" y2="0.5" id="linearGradientSkdg3d30vsim"><stop offset="0%" stop-color="#3a3a3a"></stop><stop offset="100%" stop-color="#3a3a3a"></stop></linearGradient><linearGradient x1="0" y1="0.5" x2="1" y2="0.5" id="linearGradientSkdg3d30vsis"><stop offset="0%" stop-color="#22543D"></stop><stop offset="100%" stop-color="#22543D"></stop></linearGradient><linearGradient x1="0" y1="0.5" x2="1" y2="0.5" id="linearGradientSkdg3d30vsiv"><stop offset="0%" stop-color="#38A169"></stop><stop offset="100%" stop-color="#38A169"></stop></linearGradient><linearGradient x1="0" y1="0.5" x2="1" y2="0.5" id="linearGradientSkdg3d30vsiy"><stop offset="0%" stop-color="#3a3a3a"></stop><stop offset="100%" stop-color="#3a3a3a"></stop></linearGradient><linearGradient x1="0" y1="0.5" x2="1" y2="0.5" id="linearGradientSkdg3d30vsj1"><stop offset="0%" stop-color="#3a3a3a"></stop><stop offset="100%" stop-color="#3a3a3a"></stop></linearGradient><linearGradient x1="0" y1="0.5" x2="1" y2="0.5" id="linearGradientSkdg3d30vsja"><stop offset="0%" stop-color="#38A169"></stop><stop offset="100%" stop-color="#38A169"></stop></linearGradient><linearGradient x1="0" y1="0.5" x2="1" y2="0.5" id="linearGradientSkdg3d30vsjd"><stop offset="0%" stop-color="#22543D"></stop><stop offset="100%" stop-color="#22543D"></stop></linearGradient><linearGradient x1="0" y1="0.5" x2="1" y2="0.5" id="linearGradientSkdg3d30vsjg"><stop offset="0%" stop-color="#3a3a3a"></stop><stop offset="100%" stop-color="#3a3a3a"></stop></linearGradient><linearGradient x1="0" y1="0.5" x2="1" y2="0.5" id="linearGradientSkdg3d30vsjj"><stop offset="0%" stop-color="#22543D"></stop><stop offset="100%" stop-color="#22543D"></stop></linearGradient><linearGradient x1="0" y1="0.5" x2="1" y2="0.5" id="linearGradientSkdg3d30vsjm"><stop offset="0%" stop-color="#22543D"></stop><stop offset="100%" stop-color="#22543D"></stop></linearGradient><linearGradient x1="0" y1="0.5" x2="1" y2="0.5" id="linearGradientSkdg3d30vsjp"><stop offset="0%" stop-color="#3a3a3a"></stop><stop offset="100%" stop-color="#3a3a3a"></stop></linearGradient><linearGradient x1="0" y1="0.5" x2="1" y2="0.5" id="linearGradientSkdg3d30vsjs"><stop offset="0%" stop-color="#3a3a3a"></stop><stop offset="100%" stop-color="#3a3a3a"></stop></linearGradient><linearGradient x1="0" y1="0.5" x2="1" y2="0.5" id="linearGradientSkdg3d30vsjy"><stop offset="0%" stop-color="#3a3a3a"></stop><stop offset="100%" stop-color="#3a3a3a"></stop></linearGradient></defs><g class="background-part"><rect x="0" y="0" width="1650" height="842" fill="rgba(255,255,255,0.25)" style=""></rect></g><g class="selector-part"><rect x="0" y="0" width="1095" height="842" fill="rgba(255,255,255,0)" style="transition: all 0.6s ease 0s;"></rect></g><g class="selector-part" transform="matrix(1,0,0,1,682,429)"><rect x="0" y="0" width="0" height="0" fill="rgba(255,255,255,0)" style="cursor: move;"></rect></g><g class="svg-clip svg-visible" transform="matrix(0.7943,0,0,0.7943,683.1305,308.1305)" style="cursor: move; opacity: 1;"><rect x="0" y="0" width="186" height="186" fill="none" class="svg-hitbox" style=""></rect><svg width="186.614" height="186.614" viewBox="-5,-4.987,186.614,186.614" class="thumb"><desc>Created with Snap</desc><defs></defs><g></g><g><path d="M88.307,0.013C39.536,0.013,0,39.549,0,88.32c0,48.77,39.536,88.307,88.307,88.307
	c48.77,0,88.307-39.537,88.307-88.307C176.613,39.549,137.076,0.013,88.307,0.013z M88.307,163.341
	c-41.433,0-75.021-33.589-75.021-75.021c0-41.433,33.587-75.021,75.021-75.021c41.432,0,75.021,33.587,75.021,75.021
	C163.327,129.752,129.738,163.341,88.307,163.341z" fill="url('#linearGradientSkdg3d30vsjm')" stroke="none" style=""></path></g></svg></g><g class="svg-clip svg-visible" transform="matrix(0.7943,0,0,0.7943,832.1305,307.1305)" style="cursor: move; opacity: 1;"><rect x="0" y="0" width="186" height="186" fill="none" class="svg-hitbox" style=""></rect><svg width="186.614" height="186.614" viewBox="-5,-4.987,186.614,186.614" class="thumb"><desc>Created with Snap</desc><defs></defs><g></g><g><path d="M88.307,0.013C39.536,0.013,0,39.549,0,88.32c0,48.77,39.536,88.307,88.307,88.307
	c48.77,0,88.307-39.537,88.307-88.307C176.613,39.549,137.076,0.013,88.307,0.013z M88.307,163.341
	c-41.433,0-75.021-33.589-75.021-75.021c0-41.433,33.587-75.021,75.021-75.021c41.432,0,75.021,33.587,75.021,75.021
	C163.327,129.752,129.738,163.341,88.307,163.341z" fill="url('#linearGradientSkdg3d30vsja')" stroke="none" style=""></path></g></svg></g><g class="svg-clip svg-visible" transform="matrix(0.9025,0,0,0.9025,742.0115,335.7781)" style="cursor: move; opacity: 1;"><rect x="0" y="0" width="31" height="98" fill="none" class="svg-hitbox" style=""></rect><svg width="31.993999999999993" height="98.85506464636401" viewBox="34.00600000000001,0.5729353536359856,31.993999999999993,98.85506464636401"><desc>Created with Snap</desc><defs></defs><g></g><g><path d="M50.09,94.428c-4.615,0-8.37-3.755-8.37-8.37v-1.818c0-0.051,0.002-0.102,0.006-0.152l3.195-41.71  c-3.47-3.638-5.915-10.887-5.915-17.809c0-0.039,0.001-0.078,0.003-0.117l0.993-16.993c0.064-1.103,1.024-1.948,2.113-1.88  c1.103,0.064,1.944,1.011,1.88,2.113l-0.99,16.934c0.015,6.842,2.694,13.221,5.284,15.443c0.484,0.415,0.741,1.035,0.692,1.67  l-3.262,42.577v1.742c0,2.41,1.96,4.37,4.37,4.37c2.41,0,4.37-1.96,4.37-4.37V84.32l-3.453-42.584  c-0.052-0.638,0.205-1.262,0.69-1.679c2.6-2.231,5.288-8.604,5.303-15.425l-0.996-16.94c-0.065-1.103,0.776-2.049,1.879-2.114  c1.08-0.079,2.048,0.776,2.113,1.879l1,17C60.999,24.496,61,24.535,61,24.574c0,6.901-2.451,14.141-5.93,17.787l3.383,41.716  c0.005,0.055,0.007,0.108,0.007,0.162v1.818C58.46,90.673,54.705,94.428,50.09,94.428z M49,26.574v-19c0-1.104-0.896-2-2-2  s-2,0.896-2,2v19c0,1.104,0.896,2,2,2S49,27.679,49,26.574z M55,26.545V7.574c0-1.104-0.896-2-2-2s-2,0.896-2,2v18.971  c0,1.104,0.896,2,2,2S55,27.649,55,26.545z" fill="url('#linearGradientSkdg3d30vsjg')" stroke="none" style=""></path></g></svg></g><g class="svg-clip svg-visible" transform="matrix(1.0082,0,0,1.0082,884.8611,328.0956)" style="cursor: move; opacity: 1;"><rect x="0" y="0" width="34" height="99" fill="none" class="svg-hitbox" style=""></rect><svg width="34.287287941059596" height="99.87091314391415" viewBox="32.855712058940405,0.07108685608586285,34.287287941059596,99.87091314391415"><desc>Created with Snap</desc><defs></defs><g></g><g><path d="M55.528,84.861c0,1.019-0.826,1.845-1.845,1.845s-1.845-0.826-1.845-1.845s0.826-1.845,1.845-1.845  S55.528,83.842,55.528,84.861z M62.143,86.479l-0.225-20.165L61.889,7.07c0-0.888-0.586-1.669-1.438-1.918  c-0.854-0.25-1.767,0.093-2.246,0.84l-0.351,0.55c-11.103,17.518-18.015,38.124-19.99,59.59c-0.051,0.56,0.135,1.114,0.513,1.53  c0.378,0.415,0.913,0.652,1.475,0.653l5.604,0.012l-0.235,16.308v1.846c0,4.665,3.796,8.461,8.461,8.461  S62.143,91.145,62.143,86.479z M57.943,68.329l0.2,16.305v1.846c0,2.46-2.001,4.461-4.461,4.461s-4.461-2.001-4.461-4.461  l0.236-18.148L57.943,68.329z M57.893,14.282l0.024,50.047l-9.919,0.003l-5.932-0.013C43.996,46.51,49.424,29.376,57.893,14.282z   M57,57.035V34.891c0-1.104-0.896-2-2-2s-2,0.896-2,2v22.145c0,1.104,0.896,2,2,2S57,58.14,57,57.035z" fill="url('#linearGradientSkdg3d30vsjs')" stroke="none" style=""></path></g></svg></g><g class="svg-text svg-visible" transform="matrix(0.5845,0,0,0.5845,825,434)" style="pointer-events: fill; cursor: move; opacity: 1;"><path fill="none" style="" d="M-244.40000000000003,155.6 C-20,154.6 20,154.6 244.40000000000003,155.6"></path><path d="M-221.20000000000005 0.5Q-224.90000000000003 0.5 -226.50000000000003-1.15Q-228.10000000000002-2.8 -228.10000000000002-7.4L-228.10000000000002-7.4Q-228.10000000000002-10.5 -227.45000000000005-15.35Q-226.80000000000004-20.2 -225.30000000000004-28.7L-225.30000000000004-28.7Q-222.70000000000005-44.4 -221.20000000000005-55.9L-221.20000000000005-55.9Q-220.30000000000004-63.1 -220.30000000000004-67.9L-220.30000000000004-67.9Q-220.30000000000004-72.4 -223.60000000000002-72.4L-223.60000000000002-72.4Q-226.20000000000005-72.4 -229.85000000000002-69.75Q-233.50000000000003-67.1 -237.90000000000003-61.3L-237.90000000000003-61.3Q-239.30000000000004-59.4 -241.00000000000003-59.4L-241.00000000000003-59.4Q-242.40000000000003-59.4 -243.45000000000005-60.75Q-244.50000000000003-62.1-244.50000000000003-63.8L-244.50000000000003-63.8Q-244.50000000000003-65.4 -243.85000000000002-67.05Q-243.20000000000005-68.7 -241.70000000000005-70.8L-241.70000000000005-70.8Q-236.90000000000003-77.5 -231.00000000000003-81.15Q-225.10000000000002-84.8 -219.20000000000005-84.8L-219.20000000000005-84.8Q-213.70000000000005-84.8 -210.75000000000003-81.3Q-207.80000000000004-77.8 -207.80000000000004-71.1L-207.80000000000004-71.1Q-207.80000000000004-68.4 -208.30000000000004-64.75Q-208.80000000000004-61.1 -209.20000000000005-58.8Q-209.60000000000002-56.5 -209.80000000000004-55.6L-209.80000000000004-55.6Q-204.10000000000002-71.9 -197.00000000000003-78.35Q-189.90000000000003-84.8 -181.40000000000003-84.8L-181.40000000000003-84.8Q-174.90000000000003-84.8 -171.15000000000003-80.2Q-167.40000000000003-75.6 -167.40000000000003-67.2L-167.40000000000003-67.2Q-167.40000000000003-63.9 -168.30000000000004-59L-168.30000000000004-59Q-163.30000000000004-72.8 -156.60000000000002-78.8Q-149.90000000000003-84.8 -141.20000000000005-84.8L-141.20000000000005-84.8Q-134.20000000000005-84.8 -130.45000000000005-80.3Q-126.70000000000003-75.8 -126.70000000000003-67.7L-126.70000000000003-67.7Q-126.70000000000003-63.3 -128.00000000000003-57L-128.00000000000003-57L-134.10000000000002-28.4Q-135.10000000000002-23.4 -135.10000000000002-19.8L-135.10000000000002-19.8Q-135.10000000000002-15.6 -133.15000000000003-13.5Q-131.20000000000005-11.4 -127.70000000000003-11.4L-127.70000000000003-11.4Q-124.40000000000003-11.4 -121.25000000000003-13.6Q-118.10000000000004-15.8 -113.80000000000004-20.9L-113.80000000000004-20.9Q-112.60000000000002-22.3 -111.10000000000002-22.3L-111.10000000000002-22.3Q-109.80000000000004-22.3 -109.05000000000004-21.1Q-108.30000000000004-19.9 -108.30000000000004-17.8L-108.30000000000004-17.8Q-108.30000000000004-13.9 -110.20000000000005-11.6L-110.20000000000005-11.6Q-115.40000000000003-5.3 -120.50000000000003-2.4Q-125.60000000000004 0.5 -131.20000000000005 0.5L-131.20000000000005 0.5Q-139.70000000000005 0.5 -144.50000000000003-4.55Q-149.30000000000004-9.6 -149.30000000000004-18.1L-149.30000000000004-18.1Q-149.30000000000004-24 -146.90000000000003-35.2L-146.90000000000003-35.2L-142.90000000000003-53.5Q-142.70000000000005-54.4 -142.20000000000005-56.7Q-141.70000000000005-59 -141.40000000000003-61.05Q-141.10000000000002-63.1 -141.10000000000002-65.1L-141.10000000000002-65.1Q-141.10000000000002-68.6 -142.45000000000005-70.35Q-143.80000000000004-72.1 -146.30000000000004-72.1L-146.30000000000004-72.1Q-151.00000000000003-72.1 -156.15000000000003-66.05Q-161.30000000000004-60 -165.95000000000005-46Q-170.60000000000002-32 -173.50000000000003-9.6L-173.50000000000003-9.6Q-174.20000000000005-3.6 -175.95000000000005-1.55Q-177.70000000000005 0.5 -181.60000000000002 0.5L-181.60000000000002 0.5Q-185.00000000000003 0.5 -186.55000000000004-1.1Q-188.10000000000002-2.7 -188.10000000000002-7.1L-188.10000000000002-7.1Q-188.10000000000002-11.2 -187.00000000000003-17.85Q-185.90000000000003-24.5 -184.20000000000005-33.5L-184.20000000000005-33.5Q-179.60000000000002-57.7 -179.60000000000002-64.7L-179.60000000000002-64.7Q-179.60000000000002-68.5 -181.05000000000004-70.3Q-182.50000000000003-72.1 -185.40000000000003-72.1L-185.40000000000003-72.1Q-190.30000000000004-72.1 -195.50000000000003-66.55Q-200.70000000000005-61 -205.65000000000003-46.85Q-210.60000000000002-32.7 -213.90000000000003-8.6L-213.90000000000003-8.6Q-214.60000000000002-3.5 -215.95000000000005-1.5Q-217.30000000000004 0.5 -221.20000000000005 0.5L-221.20000000000005 0.5ZM-104.10000000000002 0.5Q-110.30000000000001 0.5 -114.00000000000001-4Q-117.70000000000002-8.5 -117.70000000000002-15.8L-117.70000000000002-15.8Q-117.70000000000002-23.8 -114.00000000000001-30.95Q-110.30000000000001-38.1 -104.15000000000002-42.45Q-98.00000000000001-46.8 -91.10000000000002-46.8L-91.10000000000002-46.8Q-88.90000000000002-46.8 -88.15000000000002-45.95Q-87.40000000000002-45.1 -86.90000000000002-42.9L-86.90000000000002-42.9Q-84.80000000000001-43.3 -82.50000000000001-43.3L-82.50000000000001-43.3Q-77.60000000000002-43.3 -77.60000000000002-39.8L-77.60000000000002-39.8Q-77.60000000000002-37.7 -79.10000000000002-29.8L-79.10000000000002-29.8Q-81.40000000000002-18.3 -81.40000000000002-13.8L-81.40000000000002-13.8Q-81.40000000000002-12.3 -80.65000000000002-11.4Q-79.90000000000002-10.5 -78.70000000000002-10.5L-78.70000000000002-10.5Q-76.80000000000001-10.5 -74.10000000000002-12.95Q-71.40000000000002-15.4 -66.80000000000001-20.9L-66.80000000000001-20.9Q-65.60000000000002-22.3 -64.10000000000002-22.3L-64.10000000000002-22.3Q-62.80000000000002-22.3 -62.05000000000002-21.1Q-61.30000000000002-19.9 -61.30000000000002-17.8L-61.30000000000002-17.8Q-61.30000000000002-13.8 -63.20000000000002-11.6L-63.20000000000002-11.6Q-67.30000000000001-6.5 -71.90000000000002-3Q-76.50000000000001 0.5 -80.80000000000001 0.5L-80.80000000000001 0.5Q-84.10000000000002 0.5 -86.85000000000002-1.75Q-89.60000000000002-4 -91.00000000000001-7.9L-91.00000000000001-7.9Q-96.20000000000002 0.5 -104.10000000000002 0.5L-104.10000000000002 0.5ZM-100.50000000000001-9.6Q-98.30000000000001-9.6 -96.30000000000001-12.2Q-94.30000000000001-14.8 -93.40000000000002-19.1L-93.40000000000002-19.1L-89.70000000000002-37.5Q-93.90000000000002-37.4 -97.45000000000002-34.35Q-101.00000000000001-31.3 -103.10000000000002-26.3Q-105.20000000000002-21.3 -105.20000000000002-15.7L-105.20000000000002-15.7Q-105.20000000000002-12.6 -103.95000000000002-11.1Q-102.70000000000002-9.6 -100.50000000000001-9.6L-100.50000000000001-9.6ZM-62.30000000000002 0.5Q-66.10000000000002 0.5 -67.65000000000002-3.5Q-69.20000000000002-7.5 -69.20000000000002-16.3L-69.20000000000002-16.3Q-69.20000000000002-29.3 -65.50000000000001-41L-65.50000000000001-41Q-64.60000000000002-43.9 -62.55000000000002-45.25Q-60.500000000000014-46.6 -56.80000000000002-46.6L-56.80000000000002-46.6Q-54.80000000000002-46.6 -54.000000000000014-46.1Q-53.20000000000002-45.6 -53.20000000000002-44.2L-53.20000000000002-44.2Q-53.20000000000002-42.6 -54.70000000000002-37L-54.70000000000002-37Q-55.70000000000002-33 -56.30000000000002-30Q-56.90000000000002-27 -57.30000000000002-22.6L-57.30000000000002-22.6Q-54.000000000000014-31.2 -49.90000000000002-36.6Q-45.80000000000002-42 -41.850000000000016-44.3Q-37.90000000000002-46.6 -34.600000000000016-46.6L-34.600000000000016-46.6Q-28.100000000000016-46.6 -28.100000000000016-40.1L-28.100000000000016-40.1Q-28.100000000000016-38.8 -29.000000000000014-33.8L-29.000000000000014-33.8Q-29.80000000000002-29.8 -29.80000000000002-28.8L-29.80000000000002-28.8Q-29.80000000000002-25.3 -27.30000000000002-25.3L-27.30000000000002-25.3Q-24.500000000000014-25.3 -20.100000000000016-29.7L-20.100000000000016-29.7Q-18.80000000000002-31 -17.40000000000002-31L-17.40000000000002-31Q-16.100000000000016-31 -15.350000000000016-29.85Q-14.600000000000016-28.7 -14.600000000000016-26.8L-14.600000000000016-26.8Q-14.600000000000016-23.1 -16.600000000000016-21L-16.600000000000016-21Q-19.40000000000002-18.1 -23.15000000000002-16.05Q-26.90000000000002-14 -31.100000000000016-14L-31.100000000000016-14Q-36.40000000000002-14 -39.15000000000002-16.7Q-41.90000000000002-19.4 -41.90000000000002-24L-41.90000000000002-24Q-41.90000000000002-25.5 -41.600000000000016-27L-41.600000000000016-27Q-41.40000000000002-29 -41.40000000000002-29.7L-41.40000000000002-29.7Q-41.40000000000002-31.3 -42.500000000000014-31.3L-42.500000000000014-31.3Q-44.000000000000014-31.3 -46.45000000000002-27.95Q-48.90000000000002-24.6 -51.30000000000002-19.1Q-53.70000000000002-13.6 -55.20000000000002-7.5L-55.20000000000002-7.5Q-56.30000000000002-2.8 -57.750000000000014-1.15Q-59.20000000000002 0.5 -62.30000000000002 0.5L-62.30000000000002 0.5ZM 29.29999999999999-30.7Q 30.599999999999987-30.7  31.29999999999999-29.4Q 31.999999999999993-28.1  31.999999999999993-26.1L 31.999999999999993-26.1Q 31.999999999999993-23.6  31.29999999999999-22.25Q 30.599999999999987-20.9  29.099999999999987-20.4L 29.099999999999987-20.4Q 23.099999999999987-18.3  15.899999999999991-18L 15.899999999999991-18Q 13.899999999999991-9.7  8.349999999999987-4.6Q 2.79999999999999 0.5 -3.9000000000000092 0.5L-3.9000000000000092 0.5Q-14.00000000000001 0.5 -18.60000000000001-7.2Q-23.20000000000001-14.9 -23.20000000000001-29.5L-23.20000000000001-29.5Q-23.20000000000001-42.4 -20.00000000000001-57.55Q-16.80000000000001-72.7 -10.65000000000001-83.35Q-4.500000000000011-94  3.999999999999993-94L 3.999999999999993-94Q 8.599999999999987-94  11.399999999999991-90.05Q 14.199999999999989-86.1  14.199999999999989-79.8L 14.199999999999989-79.8Q 14.199999999999989-71.6  11.099999999999987-63.5Q 7.999999999999993-55.4  0.79999999999999-46.5L 0.79999999999999-46.5Q 7.499999999999993-46  11.699999999999989-40.95Q 15.899999999999991-35.9  16.69999999999999-28.5L 16.69999999999999-28.5Q 21.39999999999999-28.8  27.89999999999999-30.5L 27.89999999999999-30.5Q 28.499999999999993-30.7  29.29999999999999-30.7L 29.29999999999999-30.7ZM 1.6999999999999886-84.1Q-0.30000000000001137-84.1 -2.6500000000000092-78.15Q-5.000000000000011-72.2 -7.000000000000011-62Q-9.00000000000001-51.8 -10.00000000000001-39.7L-10.00000000000001-39.7Q-3.4000000000000092-51.8  0.54999999999999-61.05Q 4.499999999999993-70.3  4.499999999999993-77.5L 4.499999999999993-77.5Q 4.499999999999993-80.7  3.749999999999993-82.4Q 2.9999999999999893-84.1  1.6999999999999886-84.1L 1.6999999999999886-84.1ZM-3.5000000000000107-10.1Q-0.40000000000000924-10.1  1.9999999999999893-12.7Q 4.3999999999999915-15.3  5.199999999999989-20.2L 5.199999999999989-20.2Q 2.0999999999999908-22.3  0.44999999999998863-25.7Q-1.20000000000001-29.1 -1.20000000000001-32.9L-1.20000000000001-32.9Q-1.20000000000001-34.3 -0.8000000000000114-36.7L-0.8000000000000114-36.7L-1.1000000000000085-36.7Q-5.20000000000001-36.7 -7.95000000000001-32.65Q-10.70000000000001-28.6 -10.70000000000001-21.8L-10.70000000000001-21.8Q-10.70000000000001-16.1 -8.550000000000011-13.1Q-6.400000000000009-10.1 -3.5000000000000107-10.1L-3.5000000000000107-10.1ZM 61.29999999999998-22.3Q 62.59999999999998-22.3  63.34999999999998-21.1Q 64.09999999999998-19.9  64.09999999999998-17.8L 64.09999999999998-17.8Q 64.09999999999998-13.8  62.19999999999999-11.6L 62.19999999999999-11.6Q 57.89999999999998-6.3  52.84999999999998-2.9Q 47.79999999999998 0.5  41.399999999999984 0.5L 41.399999999999984 0.5Q 32.59999999999998 0.5  28.349999999999984-7.5Q 24.099999999999984-15.5  24.099999999999984-28.2L 24.099999999999984-28.2Q 24.099999999999984-40.4  27.249999999999986-56Q 30.399999999999984-71.6  36.54999999999998-82.8Q 42.69999999999999-94  51.19999999999999-94L 51.19999999999999-94Q 55.999999999999986-94  58.749999999999986-89.55Q 61.499999999999986-85.1  61.499999999999986-76.8L 61.499999999999986-76.8Q 61.499999999999986-64.9  54.89999999999998-49.2Q 48.29999999999998-33.5  36.999999999999986-18.1L 36.999999999999986-18.1Q 37.69999999999999-14  39.29999999999998-12.25Q 40.899999999999984-10.5  43.499999999999986-10.5L 43.499999999999986-10.5Q 47.59999999999998-10.5  50.69999999999999-12.85Q 53.79999999999998-15.2  58.59999999999998-20.9L 58.59999999999998-20.9Q 59.79999999999998-22.3  61.29999999999998-22.3L 61.29999999999998-22.3ZM 48.999999999999986-84.1Q 46.69999999999999-84.1  43.79999999999998-75.8Q 40.899999999999984-67.5  38.69999999999999-55.2Q 36.499999999999986-42.9  36.29999999999998-31.6L 36.29999999999998-31.6Q 43.399999999999984-43.3  47.59999999999998-55.05Q 51.79999999999998-66.8  51.79999999999998-76.5L 51.79999999999998-76.5Q 51.79999999999998-84.1  48.999999999999986-84.1L 48.999999999999986-84.1ZM 100.6-22.3Q 101.89999999999999-22.3  102.64999999999999-21.1Q 103.39999999999999-19.9  103.39999999999999-17.8L 103.39999999999999-17.8Q 103.39999999999999-13.8  101.49999999999999-11.6L 101.49999999999999-11.6Q 97.79999999999998-7.1  91.04999999999998-3.3Q 84.29999999999998 0.5  76.6 0.5L 76.6 0.5Q 66.1 0.5  60.29999999999999-5.2Q 54.499999999999986-10.9  54.499999999999986-20.8L 54.499999999999986-20.8Q 54.499999999999986-27.7  57.39999999999999-33.65Q 60.29999999999999-39.6  65.44999999999999-43.1Q 70.6-46.6  77.1-46.6L 77.1-46.6Q 82.89999999999999-46.6  86.39999999999999-43.15Q 89.89999999999999-39.7  89.89999999999999-33.8L 89.89999999999999-33.8Q 89.89999999999999-26.9  84.94999999999999-21.95Q 79.99999999999999-17  68.19999999999999-14.1L 68.19999999999999-14.1Q 70.69999999999999-9.5  77.69999999999999-9.5L 77.69999999999999-9.5Q 82.19999999999999-9.5  87.94999999999999-12.65Q 93.69999999999999-15.8  97.89999999999999-20.9L 97.89999999999999-20.9Q 99.1-22.3  100.6-22.3L 100.6-22.3ZM 75.39999999999999-36.8Q 71.69999999999999-36.8  69.14999999999999-32.5Q 66.6-28.2  66.6-22.1L 66.6-22.1L 66.6-21.9Q 72.49999999999999-23.3  75.89999999999999-26.1Q 79.29999999999998-28.9  79.29999999999998-32.6L 79.29999999999998-32.6Q 79.29999999999998-34.5  78.24999999999999-35.65Q 77.19999999999999-36.8  75.39999999999999-36.8L 75.39999999999999-36.8ZM 174.59999999999997-83Q 177.7-82.4  179.24999999999997-80.9Q 180.79999999999995-79.4  180.79999999999995-77.4L 180.79999999999995-77.4Q 180.79999999999995-74.1  178.95-72.6Q 177.09999999999997-71.1  173.09999999999997-71.4L 173.09999999999997-71.4Q 164.09999999999997-72.1  159.04999999999995-72.35Q 153.99999999999997-72.6  145.79999999999995-72.7L 145.79999999999995-72.7Q 142.09999999999997-54.3  138.99999999999997-35.7L 138.99999999999997-35.7Q 137.89999999999998-28.9  136.7-19.95Q 135.49999999999997-11  135.09999999999997-5.5L 135.09999999999997-5.5Q 134.89999999999998-2.6  132.7-1.05Q 130.49999999999997 0.5  127.39999999999998 0.5L 127.39999999999998 0.5Q 124.09999999999997 0.5  122.29999999999997-1.1Q 120.49999999999997-2.7  120.49999999999997-5.3L 120.49999999999997-5.3Q 120.49999999999997-7.7  121.24999999999997-13.25Q 121.99999999999997-18.8  122.99999999999997-24.9L 122.99999999999997-24.9Q 124.09999999999997-31  124.69999999999997-35.5L 124.69999999999997-35.5Q 125.79999999999997-43.1  127.19999999999997-50.6Q 128.59999999999997-58.1  129.99999999999997-64.8L 129.99999999999997-64.8Q 130.29999999999995-66.3  130.7-68.25Q 131.09999999999997-70.2  131.59999999999997-72.6L 131.59999999999997-72.6Q 121.79999999999997-72.3  116.19999999999997-71Q 110.59999999999997-69.7  108.24999999999997-67.35Q 105.89999999999998-65  105.89999999999998-61.3L 105.89999999999998-61.3Q 105.89999999999998-57.9  107.89999999999998-54.8L 107.89999999999998-54.8Q 108.29999999999997-54.1  108.29999999999997-53.3L 108.29999999999997-53.3Q 108.29999999999997-51.4  106.04999999999997-49.75Q 103.79999999999997-48.1  101.39999999999998-48.1L 101.39999999999998-48.1Q 99.69999999999997-48.1  98.59999999999997-49.1L 98.59999999999997-49.1Q 96.59999999999997-50.8  95.29999999999997-53.95Q 93.99999999999997-57.1  93.99999999999997-61.1L 93.99999999999997-61.1Q 93.99999999999997-69.6  99.54999999999997-74.75Q 105.09999999999997-79.9  116.44999999999997-82.3Q 127.79999999999997-84.7  145.59999999999997-84.7L 145.59999999999997-84.7Q 156.59999999999997-84.7  163.14999999999998-84.3Q 169.7-83.9  174.59999999999997-83L 174.59999999999997-83ZM 206.99999999999994-30.7Q 208.29999999999993-30.7  208.99999999999994-29.4Q 209.69999999999993-28.1  209.69999999999993-26.1L 209.69999999999993-26.1Q 209.69999999999993-21.3  206.79999999999993-20.4L 206.79999999999993-20.4Q 200.79999999999993-18.3  193.59999999999994-18L 193.59999999999994-18Q 191.69999999999993-9.6  186.09999999999994-4.55Q 180.49999999999994 0.5  173.39999999999992 0.5L 173.39999999999992 0.5Q 167.39999999999992 0.5  163.14999999999992-2.4Q 158.89999999999992-5.3  156.69999999999993-10.1Q 154.49999999999994-14.9  154.49999999999994-20.5L 154.49999999999994-20.5Q 154.49999999999994-28.1  157.39999999999992-34.05Q 160.29999999999993-40  165.39999999999992-43.35Q 170.49999999999994-46.7  176.69999999999993-46.7L 176.69999999999993-46.7Q 184.29999999999993-46.7  188.94999999999993-41.45Q 193.59999999999994-36.2  194.39999999999992-28.5L 194.39999999999992-28.5Q 199.09999999999994-28.8  205.59999999999994-30.5L 205.59999999999994-30.5Q 206.39999999999992-30.7  206.99999999999994-30.7L 206.99999999999994-30.7ZM 174.19999999999993-10.1Q 177.39999999999992-10.1  179.74999999999994-12.7Q 182.09999999999994-15.3  182.89999999999992-20.2L 182.89999999999992-20.2Q 179.79999999999993-22.3  178.14999999999992-25.7Q 176.49999999999994-29.1  176.49999999999994-32.9L 176.49999999999994-32.9Q 176.49999999999994-34.5  176.79999999999993-36.1L 176.79999999999993-36.1L 176.29999999999993-36.1Q 172.29999999999993-36.1  169.64999999999992-32.25Q 166.99999999999994-28.4  166.99999999999994-21.4L 166.99999999999994-21.4Q 166.99999999999994-15.9  169.14999999999992-13Q 171.29999999999993-10.1  174.19999999999993-10.1L 174.19999999999993-10.1ZM 254.49999999999994-22.3Q 255.79999999999993-22.3  256.54999999999995-21.1Q 257.29999999999995-19.9  257.29999999999995-17.8L 257.29999999999995-17.8Q 257.29999999999995-13.8  255.39999999999992-11.6L 255.39999999999992-11.6Q 251.0999999999999-6.3  246.14999999999992-2.9Q 241.19999999999993 0.5  234.89999999999992 0.5L 234.89999999999992 0.5Q 229.5999999999999 0.5  226.29999999999993-3.3L 226.29999999999993-3.3Q 220.59999999999994 0.4  214.39999999999992 0.5L 214.39999999999992 0.5Q 213.09999999999994 19.8  208.49999999999991 32.75Q 203.89999999999992 45.7 194.99999999999991 45.7L 194.99999999999991 45.7Q 189.59999999999994 45.7 186.99999999999991 41.8Q 184.39999999999992 37.9 184.39999999999992 31L 184.39999999999992 31Q 184.39999999999992 21.2 188.89999999999992 8.15Q 193.39999999999992-4.9  202.79999999999993-20.6L 202.79999999999993-20.6Q 202.79999999999993-35.2  202.59999999999994-40.9L 202.59999999999994-40.9Q 202.49999999999991-43.8  204.89999999999992-45.5Q 207.29999999999993-47.2  210.89999999999992-47.2L 210.89999999999992-47.2Q 212.99999999999991-47.2  213.94999999999993-46.35Q 214.89999999999992-45.5  214.99999999999991-43L 214.99999999999991-43Q 214.99999999999991-40.5  215.09999999999994-39.3L 215.09999999999994-39.3Q 218.29999999999993-43.3  221.39999999999992-45.05Q 224.49999999999991-46.8  227.99999999999991-46.8L 227.99999999999991-46.8Q 233.5999999999999-46.8  237.14999999999992-42.3Q 240.69999999999993-37.8  240.69999999999993-30.5L 240.69999999999993-30.5Q 240.69999999999993-25.2  238.99999999999994-20.2Q 237.29999999999993-15.2  234.29999999999993-11.1L 234.29999999999993-11.1Q 236.39999999999992-10.5  237.79999999999993-10.5L 237.79999999999993-10.5Q 241.0999999999999-10.5  244.0999999999999-12.9Q 247.0999999999999-15.3  251.79999999999993-20.9L 251.79999999999993-20.9Q 252.99999999999994-22.3  254.49999999999994-22.3L 254.49999999999994-22.3ZM 214.89999999999992-9.1Q 218.49999999999991-9.9  221.54999999999993-13.05Q 224.59999999999994-16.2  226.39999999999992-20.85Q 228.19999999999993-25.5  228.19999999999993-30.6L 228.19999999999993-30.6Q 228.19999999999993-33.6  226.99999999999991-35.15Q 225.79999999999993-36.7  223.79999999999993-36.7L 223.79999999999993-36.7Q 220.19999999999993-36.7  215.09999999999994-29.1L 215.09999999999994-29.1Q 214.99999999999991-24.7  214.99999999999991-16.2L 214.99999999999991-16.2Q 214.99999999999991-11.6  214.89999999999992-9.1L 214.89999999999992-9.1ZM 195.79999999999993 35.9Q 198.49999999999991 35.9  200.29999999999993 24.15Q 202.09999999999994 12.4  202.59999999999994-5.1L 202.59999999999994-5.1Q 198.29999999999993 4.9 195.79999999999993 14Q 193.29999999999993 23.1 193.29999999999993 29.3L 193.29999999999993 29.3Q 193.29999999999993 32.5 194.04999999999993 34.2Q 194.79999999999993 35.9 195.79999999999993 35.9L 195.79999999999993 35.9Z" data-textpath="MarbleTop" data-text-anchor="middle" data-font-size="100" data-letterspacing="0" data-side="left" data-offset="0" data-dx="0" data-dy="131.7" data-href="" data-font="Pacifico" data-font-src="/Content/clientfonts/pacifico.woff" data-font-scale="contain" transform="translate(0,131.7)" data-xmlspace="preserve" fill="url('#linearGradientSkdg3d30vsjy')"></path><rect x="0" y="0" width="0" height="0"></rect></g><g><rect x="0" y="0" width="0" height="0" fill="rgba(255,136,0,0.1)" stroke="#ff8800" style="stroke-width: 1;"></rect></g><g class="selector-part"><rect x="0" y="0" width="0" height="0" fill="rgba(168,202,236,0.5)" stroke="#3399ff" style="stroke-width: 1;"></rect></g><g class="selector-part" transform="matrix(1,0,0,1,682,429)"><rect x="0" y="0" width="0" height="0" fill="none" stroke="#2390bb" style="stroke-width: 2;"></rect><g transform="matrix(0.5,0,0,0.5,0,0)"><svg version="1.1" id="Calque_1" xmlns="http://www.w3.org/2000/svg" xmlns:xlink="http://www.w3.org/1999/xlink" x="0" y="-71px" width="28.94px" height="30px" viewBox="0 -15 28.94 30" enable-background="new 0 -15 28.94 30" xml:space="preserve" style="cursor: pointer;">
<g>
	<path fill="rgba(0,0,0,0)" d="M23.355-9.979c-0.352-0.263-0.712-0.511-1.084-0.739L20.34-7.486c0.317,0.195,0.629,0.414,0.929,0.646
		L23.355-9.979z" style=""></path>
    <path fill="rgba(0,0,0,0)" d="M28.894,0.081L25.092-0.13c0.292,2.317-0.217,4.718-1.539,6.756l-0.037-0.021
		c-0.376,0.583-0.821,1.137-1.335,1.648c-3.808,3.809-9.902,3.942-13.871,0.396C8.282,8.623,8.255,8.602,8.227,8.576
		C8.143,8.498,8.059,8.421,7.976,8.339c-0.052-0.051-0.104-0.1-0.153-0.152C7.8,8.163,7.776,8.14,7.753,8.115
		c-0.084-0.091-0.167-0.18-0.25-0.271v0.002C4.312,4.293,4.087-0.98,6.821-4.782l4.123,4.124l3.401-14.306L0.037-11.566l4.102,4.098
		C-0.064-2.14,0.193,5.554,4.917,10.587l0,0c0.012,0.016,0.023,0.025,0.033,0.037c0.091,0.098,0.181,0.199,0.278,0.293
		c0.021,0.023,0.047,0.043,0.07,0.068c0.075,0.074,0.148,0.146,0.225,0.22c0.051,0.045,0.099,0.086,0.15,0.133
		c0.053,0.047,0.104,0.094,0.156,0.14c0.144,0.13,0.291,0.257,0.439,0.375c0.01,0.012,0.018,0.016,0.027,0.023
		c5.574,4.563,13.804,4.115,18.842-1.194C27.94,7.722,29.185,3.851,28.894,0.081z" style=""></path>
    <path fill="rgba(0,0,0,0)" d="M24.122-3.353l3.544-1.319c-0.426-0.932-0.962-1.826-1.611-2.662L22.88-5.276
		C23.373-4.675,23.79-4.027,24.122-3.353z" style=""></path>
</g>
<desc>Created with Snap</desc><defs></defs><circle cx="14.5" cy="0" r="15" style="" fill="rgba(0,0,0,0)"></circle></svg></g><rect x="0" y="-21" width="0" height="21" fill="rgba(255,255,255,0)" stroke="#2390bb" style="stroke-width: 1; cursor: pointer;"></rect><circle cx="285" cy="112" r="0" fill="#ffffff" stroke="#2390bb" style="stroke-width: 2; cursor: se-resize;"></circle><circle cx="0" cy="112" r="0" fill="#ffffff" stroke="#2390bb" style="stroke-width: 2; cursor: sw-resize;"></circle><circle cx="285" cy="0" r="0" fill="#ffffff" stroke="#2390bb" style="stroke-width: 2; cursor: ne-resize;"></circle><circle cx="0" cy="0" r="0" fill="#ffffff" stroke="#2390bb" style="stroke-width: 2; cursor: nw-resize;"></circle><circle cx="143" cy="112" r="0" fill="#ffffff" stroke="#2390bb" style="stroke-width: 2; cursor: s-resize;"></circle><circle cx="143" cy="0" r="0" fill="#ffffff" stroke="#2390bb" style="stroke-width: 2; cursor: n-resize;"></circle><circle cx="0" cy="56" r="0" fill="#ffffff" stroke="#2390bb" style="stroke-width: 2; cursor: w-resize;"></circle><circle cx="285" cy="56" r="0" fill="#ffffff" stroke="#2390bb" style="stroke-width: 2; cursor: e-resize;"></circle><path stroke="#ff0000" fill="none" style="stroke-width: 3;"></path><line x1="0" x2="0" y1="0" y2="0" fill="rgba(255,255,255,0)" stroke="#2390bb" style="stroke-width: 1;"></line><line x1="0" x2="0" y1="0" y2="0" fill="rgba(255,255,255,0)" stroke="#2390bb" style="stroke-width: 1;"></line><circle cx="0" cy="0" r="0" fill="#ff0000" stroke="#2390bb" style="stroke-width: 2; cursor: pointer;"></circle><circle cx="0" cy="0" r="0" fill="#ffa500" stroke="#2390bb" style="stroke-width: 2; cursor: pointer;"></circle><circle cx="0" cy="0" r="0" fill="#ffa500" stroke="#2390bb" style="stroke-width: 2; cursor: pointer;"></circle><circle cx="0" cy="0" r="0" fill="#ff0000" stroke="#2390bb" style="stroke-width: 2; cursor: pointer;"></circle><g style="cursor: pointer; visibility: hidden; opacity: 0;" transform="matrix(1,0,0,1,-50,-15)"><rect x="0" y="0" width="30" height="30" fill="#2390bb" rx="5" ry="5" style=""></rect><rect x="6" y="6" width="18" height="4" style="" fill="#ffffff"></rect><rect x="6" y="13" width="18" height="4" fill="#ffffff" style=""></rect><rect x="6" y="20" width="18" height="4" fill="#ffffff" style=""></rect></g></g></svg>
